<?xml version="1.0" encoding="iso-8859-1"?>
<!-- Uploaded to: SVG Repo, www.svgrepo.com, Generator: SVG Repo Mixer Tools -->
<!DOCTYPE svg PUBLIC "-//W3C//DTD SVG 1.1//EN" "http://www.w3.org/Graphics/SVG/1.1/DTD/svg11.dtd">
<svg fill="#8EA604" version="1.1" id="Capa_1" xmlns="http://www.w3.org/2000/svg" xmlns:xlink="http://www.w3.org/1999/xlink"
	 width="800px" height="800px" viewBox="0 0 31.471 31.471"
	 xml:space="preserve">
<g>
	<g>
		<path d="M14.592,6.5c1.796,0,3.25-1.456,3.25-3.25c0-1.796-1.453-3.25-3.25-3.25c-1.799,0-3.252,1.455-3.252,3.25
			C11.34,5.043,12.793,6.5,14.592,6.5z"/>
		<path d="M11.917,18.025c-0.176-0.176-0.309-0.176-0.486,0l-0.068,0.086c0.048,0.498,0.18,0.965,0.386,1.375v10.668
			c0,0.729,0.614,1.316,1.34,1.316c0.728,0,1.338-0.587,1.338-1.316v-9.063c0,0.007,0.139,0.011,0.209,0.011
			c0.065,0,0.202-0.004,0.202-0.011v9.062c0,0.73,0.612,1.316,1.339,1.316c0.729,0,1.34-0.586,1.34-1.316v-7.592
			c-0.617,0.021-1.267-0.195-1.723-0.656L11.917,18.025z"/>
		<path d="M13.267,10.377l3.947,3.947c0.181,0.176,0.314,0.17,0.493-0.005l0.223-0.221v-1.183l0.521,0.656l1.852-1.852l-3.024-3.717
			l-2.688,3.504L11.864,7.75c-0.806,0.555-1.802,1.573-2.556,3.413l0.786-0.785C10.938,9.53,12.418,9.528,13.267,10.377z"/>
		<path d="M16.185,6.852l-0.771,0.325c-0.157-0.273-0.446-0.457-0.784-0.457c-0.336,0-0.624,0.181-0.785,0.45l-0.77-0.331
			c-0.113-0.048-0.239-0.037-0.341,0.031c-0.103,0.068-0.161,0.182-0.161,0.304v0.96c0,0.115,0.051,0.225,0.144,0.293
			c0.095,0.068,0.212,0.089,0.322,0.055c0.303-0.091,0.676-0.207,0.891-0.271c0.168,0.202,0.416,0.333,0.7,0.333
			c0.273,0,0.519-0.124,0.684-0.315c0.219,0.066,0.602,0.182,0.909,0.273c0.11,0.034,0.23,0.012,0.322-0.057
			c0.094-0.068,0.146-0.178,0.146-0.293V7.187c0-0.122-0.062-0.235-0.164-0.303C16.428,6.815,16.297,6.804,16.185,6.852z"/>
		<path d="M30.901,5.937c-0.269-0.271-0.633-0.442-1.014-0.442H23.63c-0.178,0-0.337,0.125-0.402,0.288
			c-0.067,0.164-0.031,0.36,0.094,0.485l1.211,1.209c0.189,0.19,0.297,0.45,0.297,0.718c0,0.27-0.106,0.528-0.297,0.718
			l-6.124,6.121c-0.524,0.524-1.375,0.524-1.899-0.001l-3.95-3.95c-0.233-0.233-0.549-0.364-0.88-0.365
			c-0.332,0-0.647,0.132-0.882,0.365L0.524,21.354c-0.486,0.485-0.486,1.272,0,1.762l1.324,1.324c0.233,0.231,0.55,0.365,0.88,0.365
			c0.331,0,0.648-0.134,0.882-0.365l7.118-7.119c0.251-0.25,0.593-0.393,0.95-0.393c0.355,0,0.697,0.143,0.949,0.393l3.881,3.883
			c0.251,0.252,0.595,0.395,0.95,0.395c0.355,0,0.697-0.143,0.949-0.393l9.21-9.211c0.188-0.19,0.446-0.296,0.716-0.296
			c0.271,0,0.525,0.106,0.717,0.297l1.423,1.425c0.123,0.124,0.311,0.163,0.473,0.096c0.162-0.064,0.271-0.222,0.272-0.397
			l0.093-6.144C31.313,6.593,31.169,6.208,30.901,5.937z"/>
	</g>
</g>
</svg>
