<?xml version="1.0" encoding="UTF-8" ?>
<!DOCTYPE svg PUBLIC "-//W3C//DTD SVG 1.1//EN" "http://www.w3.org/Graphics/SVG/1.1/DTD/svg11.dtd">
<svg width="150pt" height="149pt" viewBox="0 0 150 149" version="1.1" xmlns="http://www.w3.org/2000/svg">
<g id="#000000ff">
</g>
<g id="#2E86AB">
<path fill="#2E86AB" opacity="1.00" d=" M 66.44 1.66 C 87.77 -0.87 110.03 6.44 125.54 21.32 C 145.58 39.81 153.97 70.17 145.40 96.18 C 139.15 117.57 122.34 135.47 101.51 143.30 C 84.68 150.03 65.28 150.00 48.44 143.32 C 21.59 133.48 2.25 106.50 1.30 77.95 C 0.28 57.18 8.71 36.14 23.84 21.88 C 35.28 10.66 50.58 3.59 66.44 1.66 M 53.06 38.82 C 49.06 39.55 45.62 42.00 42.79 44.81 C 38.16 49.84 37.05 57.45 39.06 63.86 C 40.33 67.86 43.43 70.81 46.31 73.71 C 50.83 78.17 55.11 82.87 59.65 87.32 C 61.76 89.25 63.03 92.33 61.90 95.12 C 60.82 99.14 55.59 100.93 52.07 98.96 C 49.29 97.43 48.05 94.09 45.12 92.76 C 40.87 91.29 35.89 95.71 36.81 100.09 C 40.76 109.59 52.45 115.09 62.21 111.37 C 71.40 108.32 77.56 97.49 74.63 88.07 C 72.87 81.45 67.04 77.25 62.62 72.44 C 58.84 68.16 54.32 64.52 51.04 59.82 C 48.91 55.55 53.50 50.29 58.04 51.21 C 62.27 51.36 62.88 57.17 67.08 57.47 C 71.93 58.48 76.17 52.51 73.73 48.23 C 69.80 41.14 61.07 36.89 53.06 38.82 M 83.04 42.03 C 80.42 44.99 81.63 50.32 85.36 51.71 C 88.32 52.77 91.55 52.27 94.63 52.36 C 94.63 69.92 94.63 87.48 94.63 105.04 C 94.41 108.05 96.07 111.29 99.13 112.11 C 103.11 113.73 107.96 110.23 107.68 105.94 C 107.79 86.27 107.68 66.59 107.73 46.92 C 107.87 44.19 107.20 40.67 104.20 39.75 C 99.14 39.34 94.06 39.60 88.99 39.53 C 86.78 39.43 84.34 40.10 83.04 42.03 Z" />
</g>
<g id="#ffffffff">
<path fill="#ffffff" opacity="1.00" d=" M 53.06 38.82 C 61.07 36.89 69.80 41.14 73.73 48.23 C 76.17 52.51 71.93 58.48 67.08 57.47 C 62.88 57.17 62.27 51.36 58.04 51.21 C 53.50 50.29 48.91 55.55 51.04 59.82 C 54.32 64.52 58.84 68.16 62.62 72.44 C 67.04 77.25 72.87 81.45 74.63 88.07 C 77.56 97.49 71.40 108.32 62.21 111.37 C 52.45 115.09 40.76 109.59 36.81 100.09 C 35.89 95.71 40.87 91.29 45.12 92.76 C 48.05 94.09 49.29 97.43 52.07 98.96 C 55.59 100.93 60.82 99.14 61.90 95.12 C 63.03 92.33 61.76 89.25 59.65 87.32 C 55.11 82.87 50.83 78.17 46.31 73.71 C 43.43 70.81 40.33 67.86 39.06 63.86 C 37.05 57.45 38.16 49.84 42.79 44.81 C 45.62 42.00 49.06 39.55 53.06 38.82 Z" />
<path fill="#ffffff" opacity="1.00" d=" M 83.04 42.03 C 84.34 40.10 86.78 39.43 88.99 39.53 C 94.06 39.60 99.14 39.34 104.20 39.75 C 107.20 40.67 107.87 44.19 107.73 46.92 C 107.68 66.59 107.79 86.27 107.68 105.94 C 107.96 110.23 103.11 113.73 99.13 112.11 C 96.07 111.29 94.41 108.05 94.63 105.04 C 94.63 87.48 94.63 69.92 94.63 52.36 C 91.55 52.27 88.32 52.77 85.36 51.71 C 81.63 50.32 80.42 44.99 83.04 42.03 Z" />
</g>
</svg>
